<svg width="1024" height="1024" viewBox="0 0 1024 1024" fill="none" xmlns="http://www.w3.org/2000/svg">
<g clip-path="url(#clip0)">
<path d="M822.316 389.555V941.872H201.672V389.555H130.06V980.405C130.06 1001.69 146.09 1018.94 165.866 1018.94H858.12C877.908 1018.94 893.926 1001.7 893.926 980.405V389.555H822.316Z" fill="#007BFF"/>
<path d="M535.842 26.8502C522.272 13.8006 501.742 13.8006 488.16 26.8502L0 495.676L47.682 553.18L511.994 107.245L976.33 553.182L1024 495.676L535.842 26.8502Z" fill="#007BFF"/>
<path d="M522.8 483.4C537.733 462.6 557.733 446.867 582.8 436.2C608.4 425.533 637.733 420.2 670.8 420.2V535.4C656.933 534.333 647.6 533.8 642.8 533.8C607.067 533.8 579.067 543.933 558.8 564.2C538.533 583.933 528.4 613.8 528.4 653.8V857H403.6V426.6H522.8V483.4Z" fill="#007BFF"/>
</g>
<defs>
<clipPath id="clip0">
<rect width="1024" height="1024" fill="white"/>
</clipPath>
</defs>
</svg>
