<svg width="1024" height="1024" viewBox="0 0 1024 1024" fill="none" xmlns="http://www.w3.org/2000/svg">
<g clip-path="url(#clip0)">
<path d="M69.145 669.585C73.7183 663.215 79.8433 658.397 87.52 655.13C95.36 651.863 104.343 650.23 114.47 650.23V685.51C110.223 685.183 107.365 685.02 105.895 685.02C94.9517 685.02 86.3767 688.123 80.17 694.33C73.9633 700.373 70.86 709.52 70.86 721.77V784H32.64V652.19H69.145V669.585ZM265.114 718.585C265.114 719.075 264.869 722.505 264.379 728.875H164.664C166.461 737.042 170.708 743.493 177.404 748.23C184.101 752.967 192.431 755.335 202.394 755.335C209.254 755.335 215.298 754.355 220.524 752.395C225.914 750.272 230.896 747.005 235.469 742.595L255.804 764.645C243.391 778.855 225.261 785.96 201.414 785.96C186.551 785.96 173.403 783.102 161.969 777.385C150.536 771.505 141.716 763.42 135.509 753.13C129.303 742.84 126.199 731.162 126.199 718.095C126.199 705.192 129.221 693.595 135.264 683.305C141.471 672.852 149.883 664.767 160.499 659.05C171.279 653.17 183.284 650.23 196.514 650.23C209.418 650.23 221.096 653.007 231.549 658.56C242.003 664.113 250.169 672.117 256.049 682.57C262.093 692.86 265.114 704.865 265.114 718.585ZM196.759 679.14C188.103 679.14 180.834 681.59 174.954 686.49C169.074 691.39 165.481 698.087 164.174 706.58H229.099C227.793 698.25 224.199 691.635 218.319 686.735C212.439 681.672 205.253 679.14 196.759 679.14ZM340.136 650.23C360.553 650.23 376.233 655.13 387.176 664.93C398.119 674.567 403.591 689.185 403.591 708.785V784H367.821V767.585C360.634 779.835 347.241 785.96 327.641 785.96C317.514 785.96 308.694 784.245 301.181 780.815C293.831 777.385 288.196 772.648 284.276 766.605C280.356 760.562 278.396 753.702 278.396 746.025C278.396 733.775 282.969 724.138 292.116 717.115C301.426 710.092 315.718 706.58 334.991 706.58H365.371C365.371 698.25 362.839 691.88 357.776 687.47C352.713 682.897 345.118 680.61 334.991 680.61C327.968 680.61 321.026 681.753 314.166 684.04C307.469 686.163 301.753 689.103 297.016 692.86L283.296 666.155C290.483 661.092 299.058 657.172 309.021 654.395C319.148 651.618 329.519 650.23 340.136 650.23ZM337.196 760.235C343.729 760.235 349.528 758.765 354.591 755.825C359.654 752.722 363.248 748.23 365.371 742.35V728.875H339.156C323.476 728.875 315.636 734.02 315.636 744.31C315.636 749.21 317.514 753.13 321.271 756.07C325.191 758.847 330.499 760.235 337.196 760.235ZM438.182 602.21H476.402V784H438.182V602.21ZM606.459 777.63C602.702 780.407 598.047 782.53 592.494 784C587.104 785.307 581.387 785.96 575.344 785.96C559.664 785.96 547.495 781.958 538.839 773.955C530.345 765.952 526.099 754.192 526.099 738.675V684.53H505.764V655.13H526.099V623.035H564.319V655.13H597.149V684.53H564.319V738.185C564.319 743.738 565.707 748.067 568.484 751.17C571.424 754.11 575.507 755.58 580.734 755.58C586.777 755.58 591.922 753.947 596.169 750.68L606.459 777.63ZM686.566 785.96C672.683 785.96 660.188 783.102 649.081 777.385C638.138 771.505 629.563 763.42 623.356 753.13C617.149 742.84 614.046 731.162 614.046 718.095C614.046 705.028 617.149 693.35 623.356 683.06C629.563 672.77 638.138 664.767 649.081 659.05C660.188 653.17 672.683 650.23 686.566 650.23C700.449 650.23 712.863 653.17 723.806 659.05C734.749 664.767 743.324 672.77 749.531 683.06C755.738 693.35 758.841 705.028 758.841 718.095C758.841 731.162 755.738 742.84 749.531 753.13C743.324 763.42 734.749 771.505 723.806 777.385C712.863 783.102 700.449 785.96 686.566 785.96ZM686.566 754.6C696.366 754.6 704.369 751.333 710.576 744.8C716.946 738.103 720.131 729.202 720.131 718.095C720.131 706.988 716.946 698.168 710.576 691.635C704.369 684.938 696.366 681.59 686.566 681.59C676.766 681.59 668.681 684.938 662.311 691.635C655.941 698.168 652.756 706.988 652.756 718.095C652.756 729.202 655.941 738.103 662.311 744.8C668.681 751.333 676.766 754.6 686.566 754.6ZM847.108 785.96C833.225 785.96 820.73 783.102 809.623 777.385C798.68 771.505 790.105 763.42 783.898 753.13C777.691 742.84 774.588 731.162 774.588 718.095C774.588 705.028 777.691 693.35 783.898 683.06C790.105 672.77 798.68 664.767 809.623 659.05C820.73 653.17 833.225 650.23 847.108 650.23C860.991 650.23 873.405 653.17 884.348 659.05C895.291 664.767 903.866 672.77 910.073 683.06C916.28 693.35 919.383 705.028 919.383 718.095C919.383 731.162 916.28 742.84 910.073 753.13C903.866 763.42 895.291 771.505 884.348 777.385C873.405 783.102 860.991 785.96 847.108 785.96ZM847.108 754.6C856.908 754.6 864.911 751.333 871.118 744.8C877.488 738.103 880.673 729.202 880.673 718.095C880.673 706.988 877.488 698.168 871.118 691.635C864.911 684.938 856.908 681.59 847.108 681.59C837.308 681.59 829.223 684.938 822.853 691.635C816.483 698.168 813.298 706.988 813.298 718.095C813.298 729.202 816.483 738.103 822.853 744.8C829.223 751.333 837.308 754.6 847.108 754.6ZM944.93 602.21H983.15V784H944.93V602.21Z" fill="#007BFF"/>
<path d="M605.746 351.552V510.43H417.25V351.552H395.501V521.515C395.501 527.637 400.369 532.599 406.375 532.599H616.62C622.63 532.599 627.495 527.641 627.495 521.515V351.552H605.746Z" fill="#007BFF"/>
<path d="M518.741 247.216C514.62 243.463 508.385 243.463 504.26 247.216L356 382.078L370.482 398.62L511.498 270.343L652.522 398.62L667 382.078L518.741 247.216Z" fill="#007BFF"/>
</g>
<defs>
<clipPath id="clip0">
<rect width="1024" height="1024" fill="white"/>
</clipPath>
</defs>
</svg>
